<svg width="480" height="480" viewBox="0 0 480 480" fill="none" xmlns="http://www.w3.org/2000/svg">
  <rect width="480" height="480" rx="240" fill="url(#bg)"/>
  <circle cx="240" cy="190" r="110" fill="#F2F5F7"/>
  <path d="M145 379C145 315.278 196.278 264 260 264H220C283.722 264 335 315.278 335 379V420H145V379Z" fill="#1F2A44"/>
  <path d="M240 220C297.304 220 344 173.304 344 116C344 58.696 297.304 12 240 12C182.696 12 136 58.696 136 116C136 173.304 182.696 220 240 220Z" fill="#1F2A44"/>
  <path d="M240 233C272 233 298 207 298 175V152C298 133.222 290.349 115.203 276.583 101.437C262.817 87.6712 244.798 80.02 226.02 80.02C207.242 80.02 189.223 87.6712 175.457 101.437C161.691 115.203 154.04 133.222 154.04 152V175C154 207 180 233 212 233H240Z" fill="#F2F5F7"/>
  <defs>
    <radialGradient id="bg" cx="0" cy="0" r="1" gradientUnits="userSpaceOnUse" gradientTransform="translate(120 100) rotate(40) scale(520 520)">
      <stop stop-color="#4E5DE3"/>
      <stop offset="0.45" stop-color="#5F9AE5"/>
      <stop offset="1" stop-color="#0F172A"/>
    </radialGradient>
  </defs>
</svg>
